<svg xmlns="http://www.w3.org/2000/svg" data-name="Layer 1" viewBox="0 0 100 125" x="0px" y="0px"><title>Artboard 47</title><path d="M63.73,20.14a83.52,83.52,0,0,0-27.45,0A19.63,19.63,0,0,0,20.14,36.27a83.5,83.5,0,0,0,0,27.45A19.63,19.63,0,0,0,36.27,79.86a83.93,83.93,0,0,0,27.45,0A19.63,19.63,0,0,0,79.86,63.73,83.75,83.75,0,0,0,81,50a83.8,83.8,0,0,0-1.14-13.73A19.63,19.63,0,0,0,63.73,20.14Zm10.22,42.6a13.63,13.63,0,0,1-11.21,11.2A77.68,77.68,0,0,1,50,75a77.69,77.69,0,0,1-12.74-1.05,13.63,13.63,0,0,1-11.21-11.2,77.5,77.5,0,0,1,0-25.48,13.63,13.63,0,0,1,11.21-11.2,77.85,77.85,0,0,1,25.48,0,13.63,13.63,0,0,1,11.21,11.2A77.75,77.75,0,0,1,75,50,77.72,77.72,0,0,1,73.95,62.74Z"/><path d="M50,49a3,3,0,0,0-3,3V62a3,3,0,0,0,6,0V52A3,3,0,0,0,50,49Z"/><circle cx="50" cy="38" r="3"/></svg>