<svg xmlns="http://www.w3.org/2000/svg" xmlns:xlink="http://www.w3.org/1999/xlink" viewBox="0 0 100 125" version="1.1" x="0px" y="0px"><title>bin2</title><desc>Created with Sketch.</desc><g stroke="none" stroke-width="1" fill="none" fill-rule="evenodd"><g fill="#000000"><path d="M38.442378,40.1321579 L61.5579858,40.1321579 C63.2148401,40.1321579 64.5579858,41.4753036 64.5579858,43.1321579 C64.5579858,43.2692777 64.5485849,43.4062363 64.5298492,43.5420701 L61.3574354,66.5420701 C61.1526901,68.0264737 59.8840295,69.1321579 58.385572,69.1321579 L41.6147918,69.1321579 C40.1163344,69.1321579 38.8476738,68.0264737 38.6429284,66.5420701 L35.4705147,43.5420701 C35.2441264,41.9007553 36.391151,40.3866828 38.0324659,40.1602945 C38.1682997,40.1415588 38.3052582,40.1321579 38.442378,40.1321579 Z M50,44.1321579 C48.8954305,44.1321579 48,45.0275884 48,46.1321579 L48,63.1321579 C48,64.2367274 48.8954305,65.1321579 50,65.1321579 C51.1045695,65.1321579 52,64.2367274 52,63.1321579 L52,46.1321579 C52,45.0275884 51.1045695,44.1321579 50,44.1321579 Z M58.9160779,44.1721136 C57.8157116,44.075844 56.8456466,44.8898252 56.749377,45.9901915 L55.2677294,62.9255013 C55.1714598,64.0258676 55.985441,64.9959327 57.0858073,65.0922022 C58.1861736,65.1884718 59.1562386,64.3744906 59.2525082,63.2741243 L60.7341558,46.3388144 C60.8304254,45.2384482 60.0164442,44.2683831 58.9160779,44.1721136 Z M41.0858073,44.1721136 C39.985441,44.2683831 39.1714598,45.2384482 39.2677294,46.3388144 L40.749377,63.2741243 C40.8456466,64.3744906 41.8157116,65.1884718 42.9160779,65.0922022 C44.0164442,64.9959327 44.8304254,64.0258676 44.7341558,62.9255013 L43.2525082,45.9901915 C43.1562386,44.8898252 42.1861736,44.075844 41.0858073,44.1721136 Z M47,34.8678421 L47,33.8678421 C47,32.2109879 48.3431458,30.8678421 50,30.8678421 L51,30.8678421 C52.6568542,30.8678421 54,32.2109879 54,33.8678421 L54,34.8678421 L63.5,34.8678421 C64.3284271,34.8678421 65,35.539415 65,36.3678421 C65,37.1962692 64.3284271,37.8678421 63.5,37.8678421 L36.5,37.8678421 C35.6715729,37.8678421 35,37.1962692 35,36.3678421 C35,35.539415 35.6715729,34.8678421 36.5,34.8678421 L47,34.8678421 Z"/></g></g></svg>