<svg xmlns="http://www.w3.org/2000/svg" xmlns:xlink="http://www.w3.org/1999/xlink" viewBox="0 0 100 125" version="1.1" x="0px" y="0px"><title>bin</title><desc>Created with Sketch.</desc><g stroke="none" stroke-width="1" fill="none" fill-rule="evenodd"><g fill="#000000"><path d="M37.9607085,40.8181314 L61.0763163,40.8181314 C62.7331705,40.8181314 64.0763163,42.1612771 64.0763163,43.8181314 C64.0763163,43.9552512 64.0669154,44.0922097 64.0481797,44.2280436 L60.8757659,67.2280436 C60.6710205,68.7124472 59.40236,69.8181314 57.9039025,69.8181314 L41.1331223,69.8181314 C39.6346648,69.8181314 38.3660042,68.7124472 38.1612589,67.2280436 L34.9888451,44.2280436 C34.7624568,42.5867287 35.9094815,41.0726562 37.5507963,40.846268 C37.6866301,40.8275323 37.8235886,40.8181314 37.9607085,40.8181314 Z M49.5185124,44.8181314 C48.4139429,44.8181314 47.5185124,45.7135619 47.5185124,46.8181314 L47.5185124,63.8181314 C47.5185124,64.9227009 48.4139429,65.8181314 49.5185124,65.8181314 C50.6230819,65.8181314 51.5185124,64.9227009 51.5185124,63.8181314 L51.5185124,46.8181314 C51.5185124,45.7135619 50.6230819,44.8181314 49.5185124,44.8181314 Z M58.4336477,44.858087 C57.3332814,44.7618175 56.3632164,45.5757987 56.2669468,46.676165 L54.7852992,63.6114748 C54.6890296,64.7118411 55.5030108,65.6819061 56.6033771,65.7781757 C57.7037434,65.8744453 58.6738084,65.0604641 58.770078,63.9600978 L60.2517256,47.0247879 C60.3479952,45.9244216 59.534014,44.9543566 58.4336477,44.858087 Z M40.6033771,44.858087 C39.5030108,44.9543566 38.6890296,45.9244216 38.7852992,47.0247879 L40.2669468,63.9600978 C40.3632164,65.0604641 41.3332814,65.8744453 42.4336477,65.7781757 C43.534014,65.6819061 44.3479952,64.7118411 44.2517256,63.6114748 L42.770078,46.676165 C42.6738084,45.5757987 41.7037434,44.7618175 40.6033771,44.858087 Z M47.4772301,33.7006923 L47.6336646,32.7130039 C47.8928537,31.0765483 49.4295774,29.9600532 51.066033,30.2192423 L52.0537213,30.3756768 C53.690177,30.6348659 54.8066721,32.1715895 54.547483,33.8080452 L54.3910485,34.7957335 L63.7740877,36.2818609 C64.5923156,36.4114555 65.1505631,37.1798173 65.0209686,37.9980451 C64.891374,38.8162729 64.1230122,39.3745205 63.3047844,39.244926 L36.6371992,35.0211954 C35.8189713,34.8916008 35.2607238,34.123239 35.3903183,33.3050112 C35.5199129,32.4867834 36.2882747,31.9285358 37.1065026,32.0581304 L47.4772301,33.7006923 Z"/></g></g></svg>